<svg xmlns="http://www.w3.org/2000/svg" viewBox="0 0 1200 630" role="img" aria-label="IntentProof Tx Guard">
  <defs>
    <linearGradient id="og-bg" x1="0" y1="0" x2="1200" y2="630" gradientUnits="userSpaceOnUse">
      <stop stop-color="#F7FBFF"/>
      <stop offset="1" stop-color="#EAF4FF"/>
    </linearGradient>
    <linearGradient id="og-mark" x1="110" y1="100" x2="258" y2="248" gradientUnits="userSpaceOnUse">
      <stop stop-color="#38A0FF"/>
      <stop offset=".52" stop-color="#1677FF"/>
      <stop offset="1" stop-color="#0B4EB8"/>
    </linearGradient>
  </defs>
  <rect width="1200" height="630" fill="url(#og-bg)"/>
  <rect x="76" y="72" width="1048" height="486" rx="44" fill="#FFFFFF" stroke="#D7E7FF" stroke-width="2"/>
  <rect x="110" y="102" width="156" height="156" rx="44" fill="url(#og-mark)"/>
  <path d="M188 129 230 147v31c0 29-17.4 46.6-42 55.5-24.6-8.9-42-26.5-42-55.5v-31l42-18Z" fill="#FFFFFF" fill-opacity=".14" stroke="#FFFFFF" stroke-opacity=".78" stroke-width="8"/>
  <path d="m158 183 19 18 40-45" fill="none" stroke="#FFFFFF" stroke-width="13" stroke-linecap="round" stroke-linejoin="round"/>
  <text x="312" y="164" fill="#1677FF" font-family="Inter, Arial, sans-serif" font-size="28" font-weight="800" letter-spacing=".12em">INTENTPROOF TX GUARD</text>
  <text x="110" y="342" fill="#101828" font-family="Inter, Arial, sans-serif" font-size="72" font-weight="850">AI can propose.</text>
  <text x="110" y="424" fill="#101828" font-family="Inter, Arial, sans-serif" font-size="72" font-weight="850">Token Core verifies.</text>
  <text x="112" y="500" fill="#53647A" font-family="Inter, Arial, sans-serif" font-size="30" font-weight="600">Verifiable testnet signing for imToken users.</text>
  <rect x="820" y="120" width="240" height="390" rx="36" fill="#F6FAFF" stroke="#D7E7FF"/>
  <text x="860" y="188" fill="#53647A" font-family="Inter, Arial, sans-serif" font-size="24" font-weight="700">Decision</text>
  <text x="860" y="270" fill="#087A52" font-family="Inter, Arial, sans-serif" font-size="62" font-weight="850">PASS</text>
  <text x="860" y="346" fill="#53647A" font-family="Inter, Arial, sans-serif" font-size="24" font-weight="700">Policy</text>
  <text x="860" y="400" fill="#101828" font-family="Inter, Arial, sans-serif" font-size="32" font-weight="800">No bridge</text>
  <text x="860" y="448" fill="#101828" font-family="Inter, Arial, sans-serif" font-size="32" font-weight="800">No max approval</text>
</svg>
